<svg width="68" height="68" viewBox="0 0 68 68" fill="none" xmlns="http://www.w3.org/2000/svg">
<rect width="68" height="68" rx="5" fill="#861F41"/>
<path d="M46.1666 45.625V42.7083C46.1666 41.1612 45.552 39.6775 44.458 38.5835C43.3641 37.4896 41.8803 36.875 40.3333 36.875H28.6666C27.1195 36.875 25.6358 37.4896 24.5418 38.5835C23.4478 39.6775 22.8333 41.1612 22.8333 42.7083V45.625" stroke="white" stroke-width="2" stroke-linecap="round" stroke-linejoin="round"/>
<path d="M34.5001 31.0417C37.7217 31.0417 40.3334 28.43 40.3334 25.2083C40.3334 21.9867 37.7217 19.375 34.5001 19.375C31.2784 19.375 28.6667 21.9867 28.6667 25.2083C28.6667 28.43 31.2784 31.0417 34.5001 31.0417Z" stroke="white" stroke-width="2" stroke-linecap="round" stroke-linejoin="round"/>
</svg>
